<mxfile host="app.diagrams.net" modified="2024-03-04T00:04:23.598Z" agent="Mozilla/5.0 (Windows NT 10.0; Win64; x64) AppleWebKit/537.36 (KHTML, like Gecko) Chrome/122.0.0.0 Safari/537.36" etag="N8AVZFZDBGNFEm4Xuadm" version="24.0.1" type="github">
  <diagram name="Page-1" id="ApFIsPQ-G447m1PTSgwz">
    <mxGraphModel dx="1434" dy="738" grid="1" gridSize="10" guides="1" tooltips="1" connect="1" arrows="1" fold="1" page="1" pageScale="1" pageWidth="827" pageHeight="1169" math="0" shadow="0">
      <root>
        <mxCell id="0" />
        <mxCell id="1" parent="0" />
        <mxCell id="girS8NXafjgr_AsbhLEx-2" value="" style="shape=cylinder3;whiteSpace=wrap;html=1;boundedLbl=1;backgroundOutline=1;size=15;" vertex="1" parent="1">
          <mxGeometry x="150" y="210" width="60" height="80" as="geometry" />
        </mxCell>
        <mxCell id="girS8NXafjgr_AsbhLEx-5" value="Applicaton Database" style="text;html=1;align=center;verticalAlign=middle;resizable=0;points=[];autosize=1;strokeColor=none;fillColor=none;" vertex="1" parent="1">
          <mxGeometry x="125" y="180" width="130" height="30" as="geometry" />
        </mxCell>
        <mxCell id="girS8NXafjgr_AsbhLEx-6" value="Services" style="html=1;whiteSpace=wrap;strokeColor=none;fillColor=#0079D6;labelPosition=center;verticalLabelPosition=middle;verticalAlign=top;align=center;fontSize=12;outlineConnect=0;spacingTop=-6;fontColor=#FFFFFF;sketch=0;shape=mxgraph.sitemap.services;" vertex="1" parent="1">
          <mxGeometry x="20" y="80" width="120" height="70" as="geometry" />
        </mxCell>
        <mxCell id="girS8NXafjgr_AsbhLEx-7" value="OBT Application" style="text;html=1;align=center;verticalAlign=middle;resizable=0;points=[];autosize=1;strokeColor=none;fillColor=none;" vertex="1" parent="1">
          <mxGeometry x="30" y="150" width="110" height="30" as="geometry" />
        </mxCell>
        <mxCell id="girS8NXafjgr_AsbhLEx-8" value="" style="endArrow=classic;html=1;rounded=0;" edge="1" parent="1">
          <mxGeometry width="50" height="50" relative="1" as="geometry">
            <mxPoint x="60" y="260" as="sourcePoint" />
            <mxPoint x="140" y="260" as="targetPoint" />
          </mxGeometry>
        </mxCell>
        <mxCell id="girS8NXafjgr_AsbhLEx-9" value="" style="endArrow=none;html=1;rounded=0;" edge="1" parent="1">
          <mxGeometry width="50" height="50" relative="1" as="geometry">
            <mxPoint x="60" y="260" as="sourcePoint" />
            <mxPoint x="60" y="180" as="targetPoint" />
          </mxGeometry>
        </mxCell>
        <mxCell id="girS8NXafjgr_AsbhLEx-11" value="Booking Details" style="text;html=1;align=center;verticalAlign=middle;resizable=0;points=[];autosize=1;strokeColor=none;fillColor=none;" vertex="1" parent="1">
          <mxGeometry x="20" y="260" width="110" height="30" as="geometry" />
        </mxCell>
        <mxCell id="girS8NXafjgr_AsbhLEx-12" value="" style="endArrow=classic;html=1;rounded=0;" edge="1" parent="1">
          <mxGeometry width="50" height="50" relative="1" as="geometry">
            <mxPoint x="210" y="260" as="sourcePoint" />
            <mxPoint x="300" y="260" as="targetPoint" />
          </mxGeometry>
        </mxCell>
        <mxCell id="girS8NXafjgr_AsbhLEx-13" value="Services" style="html=1;whiteSpace=wrap;strokeColor=none;fillColor=#0079D6;labelPosition=center;verticalLabelPosition=middle;verticalAlign=top;align=center;fontSize=12;outlineConnect=0;spacingTop=-6;fontColor=#FFFFFF;sketch=0;shape=mxgraph.sitemap.services;" vertex="1" parent="1">
          <mxGeometry x="300" y="220" width="120" height="70" as="geometry" />
        </mxCell>
        <mxCell id="girS8NXafjgr_AsbhLEx-14" value="Change Detection&lt;div&gt;Process (CDC)&lt;/div&gt;" style="text;html=1;align=center;verticalAlign=middle;resizable=0;points=[];autosize=1;strokeColor=none;fillColor=none;" vertex="1" parent="1">
          <mxGeometry x="310" y="290" width="120" height="40" as="geometry" />
        </mxCell>
        <mxCell id="girS8NXafjgr_AsbhLEx-19" value="" style="outlineConnect=0;dashed=0;verticalLabelPosition=bottom;verticalAlign=top;align=center;html=1;shape=mxgraph.aws3.queue;fillColor=#D9A741;gradientColor=none;" vertex="1" parent="1">
          <mxGeometry x="510" y="231" width="73.5" height="48" as="geometry" />
        </mxCell>
        <mxCell id="girS8NXafjgr_AsbhLEx-20" value="Request Queue" style="text;html=1;align=center;verticalAlign=middle;resizable=0;points=[];autosize=1;strokeColor=none;fillColor=none;" vertex="1" parent="1">
          <mxGeometry x="500" y="279" width="110" height="30" as="geometry" />
        </mxCell>
        <mxCell id="girS8NXafjgr_AsbhLEx-21" value="" style="endArrow=classic;html=1;rounded=0;" edge="1" parent="1">
          <mxGeometry width="50" height="50" relative="1" as="geometry">
            <mxPoint x="420" y="254.5" as="sourcePoint" />
            <mxPoint x="510" y="254.5" as="targetPoint" />
          </mxGeometry>
        </mxCell>
        <mxCell id="girS8NXafjgr_AsbhLEx-22" value="Services" style="html=1;whiteSpace=wrap;strokeColor=none;fillColor=#0079D6;labelPosition=center;verticalLabelPosition=middle;verticalAlign=top;align=center;fontSize=12;outlineConnect=0;spacingTop=-6;fontColor=#FFFFFF;sketch=0;shape=mxgraph.sitemap.services;" vertex="1" parent="1">
          <mxGeometry x="650" y="220" width="120" height="70" as="geometry" />
        </mxCell>
        <mxCell id="girS8NXafjgr_AsbhLEx-28" value="" style="edgeStyle=orthogonalEdgeStyle;rounded=0;orthogonalLoop=1;jettySize=auto;html=1;" edge="1" parent="1" source="girS8NXafjgr_AsbhLEx-23" target="girS8NXafjgr_AsbhLEx-22">
          <mxGeometry relative="1" as="geometry" />
        </mxCell>
        <mxCell id="girS8NXafjgr_AsbhLEx-23" value="MTrip Request&lt;div&gt;Service&lt;/div&gt;&lt;div&gt;&lt;br&gt;&lt;/div&gt;" style="text;html=1;align=center;verticalAlign=middle;resizable=0;points=[];autosize=1;strokeColor=none;fillColor=none;" vertex="1" parent="1">
          <mxGeometry x="700" y="290" width="100" height="60" as="geometry" />
        </mxCell>
        <mxCell id="girS8NXafjgr_AsbhLEx-24" value="" style="endArrow=classic;html=1;rounded=0;" edge="1" parent="1">
          <mxGeometry width="50" height="50" relative="1" as="geometry">
            <mxPoint x="583.5" y="254.5" as="sourcePoint" />
            <mxPoint x="650" y="255" as="targetPoint" />
          </mxGeometry>
        </mxCell>
        <mxCell id="girS8NXafjgr_AsbhLEx-25" value="" style="endArrow=classic;html=1;rounded=0;entryX=1.021;entryY=0.529;entryDx=0;entryDy=0;entryPerimeter=0;" edge="1" parent="1">
          <mxGeometry width="50" height="50" relative="1" as="geometry">
            <mxPoint x="692" y="395" as="sourcePoint" />
            <mxPoint x="587.0313199999998" y="397.03" as="targetPoint" />
          </mxGeometry>
        </mxCell>
        <mxCell id="girS8NXafjgr_AsbhLEx-26" value="" style="aspect=fixed;sketch=0;html=1;dashed=0;whitespace=wrap;fillColor=#2875E2;strokeColor=#ffffff;points=[[0.005,0.63,0],[0.1,0.2,0],[0.9,0.2,0],[0.5,0,0],[0.995,0.63,0],[0.72,0.99,0],[0.5,1,0],[0.28,0.99,0]];shape=mxgraph.kubernetes.icon2;kubernetesLabel=1;prIcon=api" vertex="1" parent="1">
          <mxGeometry x="510.58" y="360" width="72.92" height="70" as="geometry" />
        </mxCell>
        <mxCell id="girS8NXafjgr_AsbhLEx-27" value="" style="endArrow=none;html=1;rounded=0;" edge="1" parent="1">
          <mxGeometry width="50" height="50" relative="1" as="geometry">
            <mxPoint x="690" y="395" as="sourcePoint" />
            <mxPoint x="690" y="299" as="targetPoint" />
          </mxGeometry>
        </mxCell>
        <mxCell id="girS8NXafjgr_AsbhLEx-29" value="Invokes MTrip API to sync records&lt;div&gt;&lt;br&gt;&lt;/div&gt;" style="text;html=1;align=center;verticalAlign=middle;resizable=0;points=[];autosize=1;strokeColor=none;fillColor=none;" vertex="1" parent="1">
          <mxGeometry x="590" y="400" width="210" height="40" as="geometry" />
        </mxCell>
        <mxCell id="girS8NXafjgr_AsbhLEx-30" value="" style="outlineConnect=0;dashed=0;verticalLabelPosition=bottom;verticalAlign=top;align=center;html=1;shape=mxgraph.aws3.queue;fillColor=#D9A741;gradientColor=none;" vertex="1" parent="1">
          <mxGeometry x="323.25" y="371" width="73.5" height="48" as="geometry" />
        </mxCell>
        <mxCell id="girS8NXafjgr_AsbhLEx-31" value="" style="endArrow=classic;html=1;rounded=0;" edge="1" parent="1">
          <mxGeometry width="50" height="50" relative="1" as="geometry">
            <mxPoint x="510" y="400" as="sourcePoint" />
            <mxPoint x="400" y="400" as="targetPoint" />
          </mxGeometry>
        </mxCell>
        <mxCell id="girS8NXafjgr_AsbhLEx-32" value="Response Queue" style="text;html=1;align=center;verticalAlign=middle;resizable=0;points=[];autosize=1;strokeColor=none;fillColor=none;" vertex="1" parent="1">
          <mxGeometry x="395.58" y="400" width="120" height="30" as="geometry" />
        </mxCell>
        <mxCell id="girS8NXafjgr_AsbhLEx-33" value="Services" style="html=1;whiteSpace=wrap;strokeColor=none;fillColor=#0079D6;labelPosition=center;verticalLabelPosition=middle;verticalAlign=top;align=center;fontSize=12;outlineConnect=0;spacingTop=-6;fontColor=#FFFFFF;sketch=0;shape=mxgraph.sitemap.services;" vertex="1" parent="1">
          <mxGeometry x="130" y="360" width="120" height="70" as="geometry" />
        </mxCell>
        <mxCell id="girS8NXafjgr_AsbhLEx-34" value="MTrip Response Sevice" style="text;html=1;align=center;verticalAlign=middle;resizable=0;points=[];autosize=1;strokeColor=none;fillColor=none;" vertex="1" parent="1">
          <mxGeometry x="105" y="440" width="150" height="30" as="geometry" />
        </mxCell>
        <mxCell id="girS8NXafjgr_AsbhLEx-35" value="" style="endArrow=classic;html=1;rounded=0;entryX=1;entryY=0.571;entryDx=0;entryDy=0;entryPerimeter=0;" edge="1" parent="1" target="girS8NXafjgr_AsbhLEx-33">
          <mxGeometry width="50" height="50" relative="1" as="geometry">
            <mxPoint x="320" y="400" as="sourcePoint" />
            <mxPoint x="260" y="400" as="targetPoint" />
          </mxGeometry>
        </mxCell>
        <mxCell id="girS8NXafjgr_AsbhLEx-36" value="" style="endArrow=classic;html=1;rounded=0;" edge="1" parent="1">
          <mxGeometry width="50" height="50" relative="1" as="geometry">
            <mxPoint x="180" y="357" as="sourcePoint" />
            <mxPoint x="180" y="297" as="targetPoint" />
          </mxGeometry>
        </mxCell>
        <mxCell id="girS8NXafjgr_AsbhLEx-38" value="Update Status in DB" style="text;html=1;align=center;verticalAlign=middle;resizable=0;points=[];autosize=1;strokeColor=none;fillColor=none;" vertex="1" parent="1">
          <mxGeometry x="60" y="309" width="130" height="30" as="geometry" />
        </mxCell>
        <mxCell id="girS8NXafjgr_AsbhLEx-39" value="1" style="ellipse;whiteSpace=wrap;html=1;aspect=fixed;strokeWidth=2;fontFamily=Tahoma;spacingBottom=4;spacingRight=2;strokeColor=#d3d3d3;" vertex="1" parent="1">
          <mxGeometry x="85" y="231" width="20" height="20" as="geometry" />
        </mxCell>
        <mxCell id="girS8NXafjgr_AsbhLEx-40" value="2" style="ellipse;whiteSpace=wrap;html=1;aspect=fixed;strokeWidth=2;fontFamily=Tahoma;spacingBottom=4;spacingRight=2;strokeColor=#d3d3d3;" vertex="1" parent="1">
          <mxGeometry x="240" y="231" width="20" height="20" as="geometry" />
        </mxCell>
        <mxCell id="girS8NXafjgr_AsbhLEx-41" value="3" style="ellipse;whiteSpace=wrap;html=1;aspect=fixed;strokeWidth=2;fontFamily=Tahoma;spacingBottom=4;spacingRight=2;strokeColor=#d3d3d3;" vertex="1" parent="1">
          <mxGeometry x="445.58" y="231" width="20" height="20" as="geometry" />
        </mxCell>
        <mxCell id="girS8NXafjgr_AsbhLEx-42" value="4" style="ellipse;whiteSpace=wrap;html=1;aspect=fixed;strokeWidth=2;fontFamily=Tahoma;spacingBottom=4;spacingRight=2;strokeColor=#d3d3d3;" vertex="1" parent="1">
          <mxGeometry x="600" y="231" width="20" height="20" as="geometry" />
        </mxCell>
        <mxCell id="girS8NXafjgr_AsbhLEx-43" value="5" style="ellipse;whiteSpace=wrap;html=1;aspect=fixed;strokeWidth=2;fontFamily=Tahoma;spacingBottom=4;spacingRight=2;strokeColor=#d3d3d3;" vertex="1" parent="1">
          <mxGeometry x="700" y="360" width="20" height="20" as="geometry" />
        </mxCell>
        <mxCell id="girS8NXafjgr_AsbhLEx-44" value="6" style="ellipse;whiteSpace=wrap;html=1;aspect=fixed;strokeWidth=2;fontFamily=Tahoma;spacingBottom=4;spacingRight=2;strokeColor=#d3d3d3;" vertex="1" parent="1">
          <mxGeometry x="440" y="371" width="20" height="20" as="geometry" />
        </mxCell>
        <mxCell id="girS8NXafjgr_AsbhLEx-45" value="7" style="ellipse;whiteSpace=wrap;html=1;aspect=fixed;strokeWidth=2;fontFamily=Tahoma;spacingBottom=4;spacingRight=2;strokeColor=#d3d3d3;" vertex="1" parent="1">
          <mxGeometry x="270" y="371" width="20" height="20" as="geometry" />
        </mxCell>
        <mxCell id="girS8NXafjgr_AsbhLEx-46" value="8" style="ellipse;whiteSpace=wrap;html=1;aspect=fixed;strokeWidth=2;fontFamily=Tahoma;spacingBottom=4;spacingRight=2;strokeColor=#d3d3d3;" vertex="1" parent="1">
          <mxGeometry x="190" y="319" width="20" height="20" as="geometry" />
        </mxCell>
      </root>
    </mxGraphModel>
  </diagram>
</mxfile>
